# xmcd
#
# Track frame offsets:
#	150
#	13053
#	29418
#	40652
#	55181
#	68478
#	84484
#	99928
#	116207
#	127635
#
# Disc length: 1898
#
# Revision: 3
# Processed by: cddbd v1.5.1PL0 Copyright (c) Steve Scherf et al.
# Submitted via: EasyCDDAExtractor 7.7.1.2
# Normalized: r2:DSETVAR1
#
DISCID=7207680a
DTITLE=Various Artist - Atlanta Blue
DYEAR=1984
DGENRE=Country
TTITLE0=Statler Brothers - Atlanta Blue
TTITLE1=Statler Brothers - If It Makes Any Difference
TTITLE2=Statler Brothers - (Let's Just) Take One Night At A Time
TTITLE3=Statler Brothers - Anger In Her Face
TTITLE4=The Statler Brothers - Hollywood
TTITLE5=Statler Brothers - One Takes The Blame
TTITLE6=Statler Brothers - Give It Your Best
TTITLE7=Statler Brothers - No Love Lost
TTITLE8=Statler Brothers - One Size Fits All
TTITLE9=Statler Brothers - My Only Love
EXTD=
EXTT0=D Reid
EXTT1=D Reid - H Reid
EXTT2=K Reid
EXTT3=D Reid
EXTT4=D Reid
EXTT5=D Reid
EXTT6=D Reid
EXTT7=J Rimel - J Fortune
EXTT8=J Rimel
EXTT9=J Fortune
PLAYORDER=
